<svg class="appWrapper-Header-icon" xmlns="http://www.w3.org/2000/svg" viewBox="0 0 30 30"><g fill="none" fill-rule="evenodd"><path stroke="#000" stroke-width=".5" d="M1 1h28v28H1z" opacity=".01"></path><g class="svg-fill" fill="#717071"><path d="M10.007 13.528c1.42.346 2.998.528 4.581.528 2.287 0 4.535-.382 6.17-1.05a6.54 6.54 0 0 0 .157-.066l.033-.015-.115-.247.15.23.418-.21-.135-.238.169.218.112-.066-.141-.233.165.219.433-.294.528-.464c.369.736.992 1.27 1.508 1.712l.221.191a7.999 7.999 0 0 1 .975 3.8c0 4.424-3.738 8.162-8.162 8.162-4.424 0-8.162-3.738-8.162-8.162a7.99 7.99 0 0 1 1.095-4.015zm-5.465-4.9l.232-.141a8.086 8.086 0 0 1-.217-.403l-.017-.032a10.24 10.24 0 0 1-.448-1.03 6.989 6.989 0 0 0 2.028.831 1.23 1.23 0 0 0 1.382-.646l.984.237-.73-.382c1.734-.037 3.481-.766 5.172-1.471 1.276-.532 2.48-1.034 3.55-1.192.671-.1 1.308-.15 1.892-.15 1.631 0 2.86.386 3.552 1.114.464.489.68 1.129.64 1.9a1.23 1.23 0 0 0 .734 1.186c.438.19.972.097 1.32-.226.126.099.27.172.427.216.413.115.652.216.801.338.159.13.313.364.502.76.876 1.832.478 2.79-.181 4.376a5.915 5.915 0 0 0-.018.045c-.126-.435-.291-.77-.587-1.054a11.595 11.595 0 0 0-.546-.488c-.516-.442-1.049-.898-1.231-1.458a1.222 1.222 0 0 0-2.107-.401l-.385.399-.734.497.127.24-.15-.228-.223.106c-.04.018-.08.035-.12.05-1.46.597-3.503.94-5.603.94-1.589 0-3.253-.195-4.567-.534a1.236 1.236 0 0 0-.937.137c-.232.14-.34.38-.633 1.022l-.143.313c-.19-.714-.428-1.595-.605-2.055a1.228 1.228 0 0 0-.52-.614c-.8-.473-1.456-1.03-1.952-1.659a4.43 4.43 0 0 1-.077-.1l-.076-.106a4.514 4.514 0 0 1-.149-.222 6.617 6.617 0 0 1-.15-.25l-.191.11.187-.114-.233.14zm23.154.264c-.213-.448-.417-.783-.66-1.045l.62.31-.62-.883c-.345-.49-.967-.77-1.708-.77-.463 0-.914.107-1.274.295-.06-.958-.417-1.802-1.048-2.466-1.296-1.364-3.68-1.867-6.747-1.414-1.254.185-2.602.747-3.906 1.291-1.6.667-3.255 1.357-4.734 1.357-1.042 0-1.911-.342-2.67-1.06L4.91 4.47l-.05.052-.029.003.06-.074-.09-.09-.554-.577.086.795.009.065c.039.248.15.516.327.793.069.11.147.218.232.325-.886-.538-1.602-1.343-2.17-2.43l-.31-.595-.192.644c-.472 1.586.234 3.879.977 5.349l.02.046.005.005a12.667 12.667 0 0 0 .252.464l.084.14.014.023a6.735 6.735 0 0 0 .27.416l.016.022a6.066 6.066 0 0 0 .189.253c.593.75 1.36 1.413 2.283 1.97.895 2.367 1.099 4.39 1.145 5.17-.004.1-.005.202-.005.304 0 5.2 4.394 9.594 9.594 9.594 5.201 0 9.595-4.394 9.595-9.594 0-.133-.003-.265-.009-.396.21-1.031.554-1.859.887-2.66.704-1.696 1.312-3.16.15-5.595z"></path><path d="M13.917 17.674a1.052 1.052 0 0 0 0-2.1 1.052 1.052 0 0 0 0 2.1M20.463 17.674a1.052 1.052 0 0 0 0-2.1 1.052 1.052 0 0 0 0 2.1M17.135 23.586c1.97 0 3.767-.987 4.69-2.576a.718.718 0 0 0-1.24-.72c-.667 1.149-1.989 1.863-3.45 1.863-1.462 0-2.784-.714-3.451-1.863a.711.711 0 0 0-.436-.332.717.717 0 0 0-.803 1.052c.922 1.589 2.72 2.576 4.69 2.576"></path></g></g></svg>